<svg xmlns="http://www.w3.org/2000/svg" xmlns:xlink="http://www.w3.org/1999/xlink" width="300" zoomAndPan="magnify" viewBox="0 0 224.87999 112.499997" height="150" preserveAspectRatio="xMidYMid meet" version="1.0"><defs><g/></defs><path fill="rgb(80.778503%, 23.919678%, 32.159424%)" d="M 6.953125 69.15625 L 17.691406 69.15625 L 17.691406 79.894531 L 6.953125 79.894531 L 6.953125 69.15625 " fill-opacity="1" fill-rule="nonzero"/><g fill="rgb(100%, 100%, 100%)" fill-opacity="1"><g transform="translate(15.383557, 76.121263)"><g><path d="M 29.734375 0.75 C 40.097656 0.75 47.90625 -2.027344 52.710938 -7.058594 L 52.710938 0 L 64.199219 0 L 64.199219 -60.070312 L 52.710938 -60.070312 L 52.710938 -36.867188 C 47.90625 -41.972656 40.097656 -44.675781 29.734375 -44.675781 C 14.867188 -44.675781 2.929688 -38.519531 2.929688 -22 C 2.929688 -5.480469 14.867188 0.75 29.734375 0.75 Z M 33.566406 -8.785156 C 21.175781 -8.785156 14.417969 -12.613281 14.417969 -22 C 14.417969 -31.3125 21.175781 -35.140625 33.566406 -35.140625 C 45.953125 -35.140625 52.710938 -31.3125 52.710938 -22 C 52.710938 -12.613281 45.953125 -8.785156 33.566406 -8.785156 Z M 33.566406 -8.785156 "/></g></g></g><g fill="rgb(100%, 100%, 100%)" fill-opacity="1"><g transform="translate(83.249869, 76.121263)"><g><path d="M 29.734375 0.75 C 40.097656 0.75 47.90625 -2.027344 52.710938 -7.058594 L 52.710938 0 L 64.199219 0 L 64.199219 -60.070312 L 52.710938 -60.070312 L 52.710938 -36.867188 C 47.90625 -41.972656 40.097656 -44.675781 29.734375 -44.675781 C 14.867188 -44.675781 2.929688 -38.519531 2.929688 -22 C 2.929688 -5.480469 14.867188 0.75 29.734375 0.75 Z M 33.566406 -8.785156 C 21.175781 -8.785156 14.417969 -12.613281 14.417969 -22 C 14.417969 -31.3125 21.175781 -35.140625 33.566406 -35.140625 C 45.953125 -35.140625 52.710938 -31.3125 52.710938 -22 C 52.710938 -12.613281 45.953125 -8.785156 33.566406 -8.785156 Z M 33.566406 -8.785156 "/></g></g></g><g fill="rgb(100%, 100%, 100%)" fill-opacity="1"><g transform="translate(151.116182, 76.121263)"><g><path d="M 33.566406 0.75 C 49.707031 0.75 61.496094 -4.503906 63.75 -17.269531 L 52.113281 -17.269531 C 50.234375 -11.039062 43.625 -8.785156 33.566406 -8.785156 C 21.699219 -8.785156 14.417969 -12.089844 14.417969 -22 C 14.417969 -31.835938 21.699219 -35.140625 33.566406 -35.140625 C 43.625 -35.140625 50.234375 -32.964844 52.113281 -26.730469 L 63.75 -26.730469 C 61.496094 -39.421875 49.707031 -44.675781 33.566406 -44.675781 C 15.542969 -44.675781 2.929688 -38.070312 2.929688 -22 C 2.929688 -5.855469 15.542969 0.75 33.566406 0.75 Z M 33.566406 0.75 "/></g></g></g></svg>